<?xml version="1.0" encoding="UTF-8" standalone="no"?>
<!DOCTYPE svg PUBLIC "-//W3C//DTD SVG 1.1//EN" "http://www.w3.org/Graphics/SVG/1.1/DTD/svg11.dtd">
<svg version="1.1" xmlns="http://www.w3.org/2000/svg" xmlns:xlink="http://www.w3.org/1999/xlink" preserveAspectRatio="xMidYMid meet" viewBox="0 0 640 640" width="64" height="64"><defs><path d="M164.67 481.23C117.03 481.23 78.06 442.64 78.06 395.47C78.06 373.18 78.06 194.81 78.06 172.51C78.06 125.34 117.03 86.75 164.67 86.75C187.19 86.75 367.34 86.75 389.86 86.75C437.49 86.75 476.47 125.34 476.47 172.51C476.47 194.81 476.47 373.18 476.47 395.47C476.47 442.64 437.49 481.23 389.86 481.23C344.82 481.23 187.19 481.23 164.67 481.23Z" id="c4H77j1ry"></path><linearGradient id="gradiente68b53stTm" gradientUnits="userSpaceOnUse" x1="148.21" y1="533.84" x2="195" y2="116.29"><stop style="stop-color: #e4c87a;stop-opacity: 1" offset="7.3%"></stop><stop style="stop-color: #ecaa59;stop-opacity: 1" offset="18.4%"></stop><stop style="stop-color: #ef802e;stop-opacity: 1" offset="21.513199300088342%"></stop><stop style="stop-color: #ef6d3a;stop-opacity: 1" offset="25.180528569727173%"></stop><stop style="stop-color: #f04b50;stop-opacity: 1" offset="32.62359415331113%"></stop><stop style="stop-color: #f03e58;stop-opacity: 1" offset="40.58723693160985%"></stop><stop style="stop-color: #db359e;stop-opacity: 1" offset="68.89999999999999%"></stop><stop style="stop-color: #ce37a4;stop-opacity: 1" offset="72.39999999999999%"></stop><stop style="stop-color: #ac3cb4;stop-opacity: 1" offset="82.75108835410246%"></stop><stop style="stop-color: #7544cf;stop-opacity: 1" offset="93.72409798102125%"></stop><stop style="stop-color: #2b4ff2;stop-opacity: 1" offset="98%"></stop></linearGradient><path d="M277.26 163.93C317.1 163.93 321.43 163.93 337.02 164.79C351.75 165.65 359.54 168.22 364.74 169.94C371.67 172.51 376.86 175.94 382.06 181.09C387.26 186.23 390.72 191.38 393.32 198.24C395.05 203.38 397.65 211.1 398.52 225.68C398.52 240.26 398.52 244.54 398.52 283.99C398.52 323.44 398.52 327.73 397.65 343.16C396.79 357.74 394.19 365.46 392.45 370.6C389.86 377.46 386.39 382.61 381.2 387.75C376 392.9 370.8 396.33 363.87 398.9C358.68 400.62 350.88 403.19 336.16 404.05C321.43 404.05 317.1 404.05 277.26 404.05C237.42 404.05 233.09 404.05 217.5 403.19C202.78 402.33 194.98 399.76 189.79 398.05C182.86 395.47 177.66 392.04 172.46 386.9C167.27 381.75 163.8 376.61 161.21 369.75C159.47 364.6 156.88 356.88 156.01 342.3C156.01 327.73 156.01 323.44 156.01 283.99C156.01 244.54 156.01 240.26 156.88 224.82C157.74 210.24 160.34 202.52 162.07 197.38C164.67 190.52 168.13 185.37 173.33 180.23C178.53 175.08 183.72 171.65 190.65 169.08C195.85 167.36 203.64 164.79 218.37 163.93C233.09 163.93 237.42 163.93 277.26 163.93M216.64 139.07C201.05 139.92 190.65 142.5 181.13 145.93C171.6 149.36 162.94 154.5 155.14 163.08C147.35 171.65 142.15 179.37 137.82 188.8C134.36 198.24 131.76 208.53 130.89 223.96C130.03 239.4 130.03 244.54 130.03 283.99C130.03 323.44 130.03 328.58 130.89 344.02C131.76 359.46 134.36 369.75 137.82 379.18C141.29 388.61 146.48 397.19 155.14 404.91C162.94 412.62 171.6 417.77 181.13 422.06C190.65 425.49 201.05 428.06 216.64 428.92C232.23 429.77 237.42 429.77 277.26 429.77C317.1 429.77 322.3 429.77 337.89 428.92C353.48 428.06 363.87 425.49 373.4 422.06C382.93 418.63 391.59 413.48 399.38 404.91C407.18 397.19 412.37 388.61 416.71 379.18C420.17 369.75 422.77 359.46 423.63 344.02C424.5 328.58 424.5 323.44 424.5 283.99C424.5 244.54 424.5 239.4 423.63 223.96C422.77 208.53 420.17 198.24 416.71 188.8C413.24 179.37 408.04 170.79 399.38 163.08C390.72 155.36 382.93 150.21 373.4 145.93C363.87 142.5 353.48 139.92 337.89 139.07C322.3 138.21 317.1 138.21 277.26 138.21C277.26 138.21 277.26 138.21 277.26 138.21C247.24 138.21 227.03 138.49 216.64 139.07Z" id="e1INfvuPEJ"></path><path d="M199.31 283.99C199.31 326.87 233.96 361.17 277.26 361.17C320.57 361.17 355.21 326.87 355.21 283.99C355.21 241.11 320.57 206.81 277.26 206.81C233.96 206.81 199.31 241.11 199.31 283.99ZM225.3 283.99C225.3 255.69 248.68 232.54 277.26 232.54C305.84 232.54 329.23 255.69 329.23 283.99C329.23 312.29 305.84 335.44 277.26 335.44C248.68 335.44 225.3 312.29 225.3 283.99Z" id="a3dPVpixGO"></path><path d="M355.21 189.66C345.65 189.66 337.89 197.34 337.89 206.81C337.89 216.28 345.65 223.96 355.21 223.96C364.78 223.96 372.53 216.28 372.53 206.81C372.53 197.34 364.78 189.66 355.21 189.66Z" id="c4zQrdNteO"></path></defs><g><g><g><use xlink:href="#c4H77j1ry" opacity="1" fill="url(#gradiente68b53stTm)"></use><g><use xlink:href="#c4H77j1ry" opacity="1" fill-opacity="0" stroke="#000000" stroke-width="1" stroke-opacity="0"></use></g></g><g><use xlink:href="#e1INfvuPEJ" opacity="1" fill="#ffffff" fill-opacity="1"></use><g><use xlink:href="#e1INfvuPEJ" opacity="1" fill-opacity="0" stroke="#000000" stroke-width="1" stroke-opacity="0"></use></g></g><g><use xlink:href="#a3dPVpixGO" opacity="1" fill="#ffffff" fill-opacity="1"></use><g><use xlink:href="#a3dPVpixGO" opacity="1" fill-opacity="0" stroke="#000000" stroke-width="1" stroke-opacity="0"></use></g></g><g><use xlink:href="#c4zQrdNteO" opacity="1" fill="#ffffff" fill-opacity="1"></use><g><use xlink:href="#c4zQrdNteO" opacity="1" fill-opacity="0" stroke="#000000" stroke-width="1" stroke-opacity="0"></use></g></g></g></g></svg>