<?xml version="1.0" standalone="no"?>
<!DOCTYPE svg PUBLIC "-//W3C//DTD SVG 20010904//EN"
 "http://www.w3.org/TR/2001/REC-SVG-20010904/DTD/svg10.dtd">
<svg version="1.0" xmlns="http://www.w3.org/2000/svg"
 width="512.000000pt" height="512.000000pt" viewBox="0 0 512.000000 512.000000"
 preserveAspectRatio="xMidYMid meet">

<g transform="translate(0.000000,512.000000) scale(0.100000,-0.100000)"
fill="#000000" stroke="none">
<path d="M445 5110 c-199 -27 -361 -167 -422 -365 -17 -57 -18 -151 -18 -2185
0 -2034 1 -2128 18 -2185 53 -171 181 -299 352 -352 57 -17 151 -18 2185 -18
2034 0 2128 1 2185 18 171 53 299 181 352 352 17 57 18 151 18 2185 0 2034 -1
2128 -18 2185 -51 166 -172 291 -337 348 l-65 22 -2095 1 c-1152 1 -2122 -2
-2155 -6z m1336 -1063 c172 -45 345 -140 431 -236 95 -106 138 -226 138 -386
0 -164 -39 -283 -140 -429 -133 -193 -299 -314 -762 -558 -108 -56 -209 -112
-224 -124 -27 -20 -28 -22 -16 -60 6 -22 26 -61 43 -87 69 -105 377 -403 735
-710 259 -223 300 -274 275 -350 -34 -102 -225 -91 -427 24 -273 156 -714 581
-914 879 -24 35 -62 101 -85 146 l-41 82 -118 -396 c-199 -666 -244 -794 -282
-809 -47 -18 -166 86 -211 184 -22 49 -25 65 -20 127 6 79 75 355 197 791 157
560 246 939 284 1210 25 177 25 174 -21 222 -52 53 -94 139 -95 193 0 35 6 48
38 82 89 91 368 190 644 228 36 5 157 7 270 6 182 -3 216 -6 301 -29z m2309
-12 c499 -62 794 -239 851 -513 6 -33 9 -93 6 -142 -18 -310 -271 -568 -724
-738 l-103 -38 103 -12 c408 -46 719 -254 743 -499 29 -291 -274 -627 -755
-837 -133 -59 -346 -128 -491 -160 -274 -60 -604 -76 -754 -37 -136 36 -245
95 -352 194 -77 70 -109 128 -109 198 0 112 43 142 135 92 30 -16 93 -50 140
-76 84 -45 182 -77 235 -77 l28 0 -45 47 c-54 58 -90 130 -96 192 -5 56 22
167 118 483 171 563 254 921 295 1273 8 71 15 151 15 177 0 46 0 46 -40 53
-100 17 -230 162 -230 257 0 33 6 42 42 68 67 49 229 94 396 110 119 12 441 3
592 -15z"/>
<path d="M1370 3683 c-124 -19 -360 -86 -360 -102 0 -5 7 -28 16 -52 22 -58
21 -210 -1 -349 -25 -156 -107 -516 -151 -663 -4 -13 10 -8 60 22 36 22 179
102 318 177 311 168 392 221 501 326 136 133 197 251 197 381 0 145 -90 223
-296 257 -57 10 -232 11 -284 3z"/>
<path d="M3885 3683 c-66 -6 -269 -33 -287 -39 -15 -4 -12 -14 23 -65 46 -66
69 -132 69 -193 0 -64 -98 -518 -146 -679 -5 -15 9 -11 73 21 43 22 170 77
283 122 336 135 476 215 560 321 64 81 83 125 88 206 4 59 1 79 -18 117 -39
81 -161 154 -304 181 -71 14 -236 18 -341 8z"/>
<path d="M3485 2479 c-2 -8 -30 -111 -61 -229 -106 -410 -202 -727 -249 -820
l-23 -45 104 7 c447 30 981 235 1212 464 129 128 148 256 50 333 -114 90 -437
173 -738 190 -160 9 -188 17 -252 79 -28 26 -39 32 -43 21z"/>
</g>
</svg>
